<?xml version="1.0" standalone="no"?>
<!DOCTYPE svg PUBLIC "-//W3C//DTD SVG 20010904//EN"
 "http://www.w3.org/TR/2001/REC-SVG-20010904/DTD/svg10.dtd">
<svg version="1.0" xmlns="http://www.w3.org/2000/svg"
 width="80.000000pt" height="80.000000pt" viewBox="0 0 80.000000 80.000000"
 preserveAspectRatio="xMidYMid meet">

<g transform="translate(0.000000,80.000000) scale(0.100000,-0.100000)"
fill="#000000" stroke="none">
<path d="M178 590 c-16 -14 -18 -37 -18 -172 0 -112 3 -158 13 -166 6 -5 52
-22 102 -38 50 -15 92 -31 93 -36 7 -17 45 -7 73 21 30 31 41 75 15 65 -8 -3
-17 -1 -21 5 -3 7 2 11 14 11 20 0 21 6 21 115 0 108 -1 115 -20 115 -13 0
-20 7 -20 20 0 13 7 20 19 20 13 0 20 9 23 30 4 26 1 30 -18 30 -13 0 -26 -5
-29 -10 -4 -6 -6 -100 -5 -209 0 -128 -3 -202 -10 -206 -5 -3 -10 2 -10 12 0
10 -13 27 -28 37 -27 20 -27 20 -9 0 26 -30 21 -38 -9 -15 -15 12 -32 21 -38
21 -6 -1 2 -8 17 -16 16 -9 27 -17 25 -20 -5 -4 -85 20 -123 36 -11 5 -28 10
-38 12 -17 3 -19 14 -18 106 1 195 5 226 11 72 l5 -155 48 -1 47 -1 -45 4 -45
4 -2 163 c-3 154 -4 162 -20 146z m279 -22 c-3 -7 -5 -2 -5 12 0 14 2 19 5 13
2 -7 2 -19 0 -25z"/>
<path d="M220 569 c4 -23 8 -82 8 -132 1 -86 3 -93 27 -114 36 -31 78 -29 114
5 29 27 30 31 33 139 l3 112 -27 16 -28 16 0 -120 c0 -95 -3 -123 -16 -135 -8
-9 -21 -16 -28 -16 -31 0 -37 28 -34 149 l3 121 -31 0 c-31 0 -31 0 -24 -41z"/>
<path d="M490 415 c0 -189 1 -195 20 -195 17 0 19 3 10 19 -5 11 -10 54 -10
96 l0 77 50 -4 c48 -3 50 -2 50 23 0 25 -2 26 -50 21 l-50 -5 0 62 0 61 53 0
c29 0 58 -5 64 -11 7 -7 10 -1 9 20 l-1 31 -72 0 -73 0 0 -195z"/>
<path d="M278 243 c7 -3 16 -2 19 1 4 3 -2 6 -13 5 -11 0 -14 -3 -6 -6z"/>
</g>
</svg>
